<?xml version="1.0" encoding="UTF-8"?>
<svg id="Layer_1" data-name="Layer 1" xmlns="http://www.w3.org/2000/svg" viewBox="0 0 910.48 532.44">
  <defs>
    <style>
      .cls-1 {
        fill: #b8e5fa;
      }

      .cls-1, .cls-2 {
        stroke-width: 0px;
      }

      .cls-2 {
        fill: #262262;
      }
    </style>
  </defs>
  <path class="cls-2" d="M3.42,170.59c2.14-.37,4.4,5.53,7.06,10.59,30.53,58.21,135.59,58.71,148.24,58.82,80.03.71,141.03-38.01,193.13-71.08,57.61-36.57,69.64-59.46,130.59-85.88,6.81-2.95,38.27-11.77,101.18-29.41C681.64,26.14,739.41,11.43,811.57.01c0,0,.08-.01.08-.01,32.94,105.49,65.88,210.98,98.82,316.47-56.59-20.55-139.44-39.83-222.35-10.59-107.44,37.89-99.82,116.63-204.71,176.47-178.96,102.1-452.8,16.48-452.94,16.47.02,0-42.62-325.55-27.06-328.24Z"/>
  <path class="cls-1" d="M20.08,225.39c12.98,9.74,33.13,22.71,60,31.76,35.9,12.1,82.88,16.92,154.84-3.79,13.08-3.77,31.69-9.64,59.99-22.74,95.58-44.26,109.86-80.66,182.82-120.52,39.02-21.32,84.84-33.03,176.47-56.47,59.21-15.14,109.24-24.65,144.71-30.59,26.27,86.67,52.55,173.33,78.82,260-34.12-14.95-109.32-41.45-189.41-15.29-44.39,14.5-76.06,40.53-101.18,61.18-58.21,47.85-59.58,73.93-100,109.41-68.57,60.19-156.5,65.77-195.29,68.24,0,0-86.24,5.48-233.07-38.94,0,0-.42-.13-.42-.13s.4.13.42.13c.59-.08-16.28-104.77-38.7-242.23Z"/>
  <path class="cls-2" d="M345.96,275.98c-3.58,11.37-12.66,40.2-1.18,71.76,2.39,6.56,15.81,43.45,49.41,54.12,46.66,14.81,91.2-33.99,98.82-42.35,12.47-13.67,49.58-54.34,34.12-101.18-11.23-34.02-45.21-56.14-78.82-58.82-53.59-4.27-85.63,42.51-89.41,48.24-7.58,11.48-11.04,22.19-12.94,28.24Z"/>
  <path class="cls-1" d="M452.84,365.39c-3.16-6.4-4.75-9.6-7.91-16-11.46,3.01-23.8,4.18-35.53,2.08-.09-4.81-.13-7.22-.21-12.03,11.46,2.2,22.56.64,33.56-1.71,9.5-2.03,22.95-11.6,17.28-22.56-5.68-10.99-21.62-12.06-33.01-12.16-15.9-.15-40.26-1-48.14-17.64-6.92-14.61,5.04-29.42,19.05-34.43-3.16-6.4-4.75-9.6-7.91-16,5.2-1.47,7.8-2.2,13-3.67,3.04,6.15,4.56,9.22,7.6,15.36,10.03-1.88,19.77-3.69,30-2.15-.03,4.77-.04,7.16-.07,11.93-9.73-1.29-19.88-.19-29.08,2.07-9.2,2.26-19.79,10.57-15.49,19.89,5,10.84,24.12,10.4,34.93,10.72,16.5.49,38.44,2.83,46.83,19.82,7.68,15.53-5.66,31.02-19.81,36.27,3.26,6.59,4.89,9.88,8.14,16.47-5.28,1.49-7.93,2.24-13.21,3.73Z"/>
</svg>