<?xml version="1.0" encoding="UTF-8"?>
<svg id="Layer_1" data-name="Layer 1" xmlns="http://www.w3.org/2000/svg" viewBox="0 0 979.46 410.22">
  <defs>
    <style>
      .cls-1 {
        font-family: MyriadPro-Regular, 'Myriad Pro';
        font-size: 80px;
      }

      .cls-1, .cls-2 {
        fill: #b9e5fa;
      }

      .cls-3 {
        fill: #2a3b90;
      }

      .cls-3, .cls-2 {
        stroke-width: 0px;
      }
    </style>
  </defs>
  <path class="cls-3" d="M229.71,199.01c-21.88-16.42-49.14-34.22-81.93-50.48-61.46-30.48-58.03-17.34-123.31-43.03-3.87-1.52-13.78-5.47-17.38-1.66-6.43,6.82,11.86,33.58,13.24,35.59,36.1,52.21,104.42,54.36,103.45,70.34-.48,7.81-16.9,9.18-77.79,38.07-11.42,5.42-30.26,14.67-40.55,34.76-2.85,5.57-6.79,10.32-4.97,13.24,2.84,4.54,16,.99,19.86,0,40.6-10.45,127.46-15.47,160.55-17.38,26.92-1.55,66.95.38,117.52,19.03"/>
  <path class="cls-3" d="M494.26,309.91c-45.48,41.12-79.64,71.29-92.8,82.76-2.01,1.75-6.37,5.45-11.34,4.97-9.17-.9-8.37-14.89-22.68-29.79-12.12-12.62-23.13-13.48-22.68-19.86.5-7.13,14.53-10.03,30.93-18.21,12.03-6,27.52-15.92,42.28-33.1"/>
  <path class="cls-3" d="M599.09,290.75c-1.36,9.12-3.77,22.09-8.28,37.24-7.17,24.1-15.7,51.58-39.17,70.34-6.05,4.84-18.56,14.84-29.79,11.03-5.81-1.97-8.74-6.86-14.34-16.55-9.41-16.27-17.01-29.39-13.24-43.03.96-3.46,1.28-2.03,12.97-25.1,3.17-6.27,4.25-8.55,4.97-9.93,4.36-8.43,13.98-19.49,37.24-30.62"/>
  <path class="cls-3" d="M651.78,122.87c-10.27-12.61-67.18-82.08-106.76-110.9-9.93-7.23-22.01-14.26-34.55-11.27-10.28,2.45-16.26,10.52-21.72,17.9-18.68,25.22-15.96,55.25-14.9,67.03.43,4.81.67,7.27,1.66,9.93,7.99,21.61,42.03,26.28,51.31,27.31"/>
  <path class="cls-2" d="M978.56,184.9c-4.43-15.68-23.67-21.66-65.96-34.94-97.78-30.72-93.26-29.69-101.09-31.65-40.45-10.11-71.23-17.64-111.95-19.67-22.28-1.11-42.77-.33-48.55-.09-21.51.91-38.82,2.91-56.9,5.35-19.03,2.57-34.25,4.63-51.55,7.57-18.38,3.12-31.94,5.99-35.99,6.83-210.42,43.56-331.6,69.42-333.15,103.87-.21,4.69,1.59,14.04,41.69,37.76,151.3,89.5,316.16,69.11,383.88,59.8.62-.09,1.12-.15,1.4-.19h0c.09,0,180.94,2.01,298.77-44.44,7.63-3.01,41.71-16.98,65.43-50.62,8.17-11.59,17.87-25.74,13.96-39.58Z"/>
  <circle class="cls-3" cx="880.02" cy="186.36" r="32.5"/>
  <text class="cls-1" transform="translate(859.26 212.36)"><tspan x="0" y="0">$</tspan></text>
</svg>