<?xml version="1.0" encoding="UTF-8"?>
<svg id="Layer_1" data-name="Layer 1" xmlns="http://www.w3.org/2000/svg" viewBox="0 0 909.96 803.2">
  <defs>
    <style>
      .cls-1 {
        fill: #b8e5fa;
      }

      .cls-1, .cls-2 {
        stroke-width: 0px;
      }

      .cls-3 {
        fill: #fbb040;
        font-family: MyriadPro-Regular, 'Myriad Pro';
        font-size: 48px;
      }

      .cls-4 {
        fill: #ffd27f;
        stroke: #fbb040;
      }

      .cls-4, .cls-5, .cls-6 {
        stroke-miterlimit: 10;
        stroke-width: 14px;
      }

      .cls-2 {
        fill: #262262;
      }

      .cls-5 {
        stroke: #262262;
      }

      .cls-5, .cls-6 {
        fill: none;
      }

      .cls-6 {
        stroke: #b8e5fa;
      }
    </style>
  </defs>
  <ellipse class="cls-1" cx="496.96" cy="465.2" rx="350" ry="300"/>
  <rect class="cls-1" x="271.96" y="503.2" width="150" height="300"/>
  <rect class="cls-1" x="571.96" y="503.2" width="150" height="300"/>
  <rect class="cls-1" x="584.96" y="365.2" width="300" height="200"/>
  <path class="cls-1" d="M643.34,218.73c4.69-15.8,16.48-46.71,46.42-69.14,2.9-2.17,32.41-23.97,41.98-16.05,9.58,7.94-12.43,36.11-11.11,80.25.63,21.08,6.35,38.18,11.11,49.38"/>
  <circle class="cls-2" cx="668.34" cy="338.79" r="25"/>
  <path class="cls-5" d="M443.35,199.07c7.9-1.97,27.27-6.21,53.99-6.17,26.28.04,45.33,4.2,53.24,6.17"/>
  <path class="cls-6" d="M178.64,408.85c-3.25-6.03-17.23-30.35-45.68-38.27-30.29-8.43-70.18,3.79-75.31,25.93-3.25,14.04,6.99,34.18,23.46,38.27,15.28,3.79,33.41-6.87,37.04-19.75,6.72-23.9-32.5-69.66-71.6-64.2-22.56,3.15-36.53,22.16-40.74,28.4"/>
  <ellipse class="cls-2" cx="884.96" cy="465.2" rx="25" ry="100"/>
  <circle class="cls-4" cx="496.96" cy="57" r="50"/>
  <text class="cls-3" transform="translate(485.49 71.4)"><tspan x="0" y="0">$</tspan></text>
</svg>