<?xml version="1.0" encoding="UTF-8"?>
<svg id="Layer_1" data-name="Layer 1" xmlns="http://www.w3.org/2000/svg" viewBox="0 0 916.73 571.58">
  <defs>
    <style>
      .cls-1 {
        fill: #2b3990;
      }

      .cls-1, .cls-2 {
        stroke-width: 0px;
      }

      .cls-2 {
        fill: #b9e5fa;
      }
    </style>
  </defs>
  <path class="cls-2" d="M295.06,397.89c.53-4.37,9.4-2,20.99-12.35,22.59-20.17,21.18-58.01,19.75-86.42-2.42-48.44-15.52-64.43-3.7-79.01,14.2-17.54,46.26-11.4,46.91-18.52.61-6.62-27.5-8.01-49.38-25.93-25.78-21.11-21.27-47.42-34.57-75.31C262.84,32.8,160.96,29.27,162.97,15.17c1.66-11.71,73.99-23.3,160.49-7.41,141.9,26.08,309.38,123.8,372.84,295.06,6.27,16.92,44.79,118.11,14.81,139.51-6.04,4.31-13.09,4.12-16.18,4-44.8-1.79-403.17-21-399.87-48.44Z"/>
  <path class="cls-1" d="M83.95,460.85c13.72,26.43,37.34,61.33,74.07,69.14,42.29,8.99,62.06-26.77,114.81-30.86,63.31-4.91,81.28,41.72,158.02,62.96,28.27,7.82,103.13,21.11,175.98-10.96,27.5-12.11,55.35-31.06,53.65-34.72-1.81-3.89-35.36,13.11-69.14,19.75-83.15,16.36-110.89-41.2-213.58-59.26-99.88-17.56-128.98,27.16-220.99-2.47-45.22-14.56-78.29-38.28-98.77-55.56"/>
  <path class="cls-1" d="M822.22,356.08c16.27,16.76,50.54,52.06,41.98,86.42-6.12,24.55-31.35,37.51-59.26,51.85-30.58,15.71-59.25,19.64-77.3,21.66-13.85,1.56-24.49,1.82-31.93,1.74-9.75-.1-12.98-.23-12.98-.14-.02.43,64.98,13.98,134.67-3.26,3.31-.82,39.36-10.11,75.21-37.29,18.55-14.06,22.16-21.28,23.46-27.16,4.24-19.18-12.07-37.8-32.1-60.66-19.23-21.95-37.38-35.2-43.21-39.34-34.58-24.56-70.19-37.14-71.6-34.57-1.07,1.94,26.18,13.03,53.09,40.74Z"/>
  <path class="cls-1" d="M251.85,434.92c-40.57,3.48-67.97-5.28-85.19-13.58-42.24-20.35-46.28-49.86-90.12-65.43C34.73,341.06.32,351.7,0,348.5c-.43-4.39,63.35-33.53,122.22-11.11,44.75,17.04,52,50.68,109.88,75.31,25.21,10.73,47.69,14.5,61.73,16.05"/>
</svg>